<?xml version="1.0" encoding="UTF-8" standalone="no"?>
<!-- Created with Inkscape (http://www.inkscape.org/) -->

<svg
   xmlns:dc="http://purl.org/dc/elements/1.1/"
   xmlns:cc="http://creativecommons.org/ns#"
   xmlns:rdf="http://www.w3.org/1999/02/22-rdf-syntax-ns#"
   xmlns:svg="http://www.w3.org/2000/svg"
   xmlns="http://www.w3.org/2000/svg"
   xmlns:sodipodi="http://sodipodi.sourceforge.net/DTD/sodipodi-0.dtd"
   xmlns:inkscape="http://www.inkscape.org/namespaces/inkscape"
   version="1.1"
   id="svg6768"
   xml:space="preserve"
   width="800"
   height="800"
   viewBox="0 0 800 800"
   sodipodi:docname="republic-austria-flag-heart.svg"
   inkscape:version="0.92.4 (5da689c313, 2019-01-14)"><metadata
     id="metadata6774"><rdf:RDF><cc:Work
         rdf:about=""><dc:format>image/svg+xml</dc:format><dc:type
           rdf:resource="http://purl.org/dc/dcmitype/StillImage" /><dc:title></dc:title></cc:Work></rdf:RDF></metadata><defs
     id="defs6772"><clipPath
       clipPathUnits="userSpaceOnUse"
       id="clipPath6784"><path
         d="M 0,600 H 600 V 0 H 0 Z"
         id="path6782"
         inkscape:connector-curvature="0" /></clipPath></defs><sodipodi:namedview
     pagecolor="#ffffff"
     bordercolor="#666666"
     borderopacity="1"
     objecttolerance="10"
     gridtolerance="10"
     guidetolerance="10"
     inkscape:pageopacity="0"
     inkscape:pageshadow="2"
     inkscape:window-width="1920"
     inkscape:window-height="1018"
     id="namedview6770"
     showgrid="false"
     inkscape:zoom="0.78267187"
     inkscape:cx="518.64407"
     inkscape:cy="372.88136"
     inkscape:window-x="-8"
     inkscape:window-y="-8"
     inkscape:window-maximized="1"
     inkscape:current-layer="g6776" /><g
     id="g6776"
     inkscape:groupmode="layer"
     inkscape:label="Austria-love-publicdomainvectors.org"
     transform="matrix(1.3333333,0,0,-1.3333333,0,800)"><g
       id="g6778"><g
         id="g6780"
         clip-path="url(#clipPath6784)"><path
           d="M 600,0 H 1.118 V 600 H 600 Z"
           style="fill:#393536;fill-opacity:1;fill-rule:nonzero;stroke:none"
           id="path6786"
           inkscape:connector-curvature="0" /><path
           d="m 117.233,227.258 c -0.826,-0.505 -1.282,-1.386 -1.282,-2.289 0,-0.466 0.121,-0.938 0.376,-1.367 0.749,-1.261 2.373,-1.685 3.643,-0.952 0,0 9.472,5.469 25.358,14.64 h -11.681 c -10.423,-6.371 -16.414,-10.032 -16.414,-10.032"
           style="fill:#e43451;fill-opacity:1;fill-rule:nonzero;stroke:none"
           id="path6788"
           inkscape:connector-curvature="0" /><path
           d="m 282.845,415.283 c 0.803,0.509 1.245,1.377 1.245,2.265 0,0.473 -0.126,0.952 -0.388,1.386 -0.755,1.247 -2.369,1.662 -3.632,0.933 0,0 -54.6,-31.524 -108.617,-62.711 48.223,31.12 96.53,62.293 96.53,62.293 0.793,0.512 1.227,1.374 1.227,2.255 0,0.476 -0.127,0.958 -0.393,1.394 -0.758,1.241 -2.367,1.651 -3.627,0.923 0,0 -13.285,-7.67 -15.533,-8.967 2.213,1.353 15.296,9.358 15.296,9.358 0.825,0.505 1.282,1.385 1.282,2.288 0,0.466 -0.122,0.938 -0.377,1.367 -0.75,1.261 -2.373,1.684 -3.643,0.951 0,0 -25.849,-14.924 -37.786,-21.815 14.658,9.06 42.732,26.415 42.732,26.415 0.819,0.506 1.272,1.382 1.272,2.281 0,0.468 -0.123,0.942 -0.38,1.372 -0.752,1.257 -2.372,1.679 -3.64,0.946 0,0 -57.385,-33.131 -113.413,-65.479 47.87,30.992 95.905,62.092 95.905,62.092 0.791,0.512 1.224,1.372 1.224,2.252 0,0.477 -0.128,0.96 -0.394,1.396 -0.759,1.24 -2.368,1.649 -3.626,0.922 0,0 -38.348,-22.14 -72.973,-42.13 39.011,24.662 80.297,50.763 80.297,50.763 0.806,0.509 1.249,1.378 1.249,2.267 0,0.473 -0.125,0.951 -0.387,1.384 -0.755,1.249 -2.37,1.664 -3.633,0.935 0,0 -26.765,-15.453 -40.794,-23.553 10.27,6.379 33.284,20.674 33.284,20.674 0.816,0.507 1.266,1.382 1.266,2.279 0,0.468 -0.123,0.943 -0.381,1.374 -0.752,1.255 -2.371,1.675 -3.639,0.944 0,0 -47.381,-27.356 -94.669,-54.657 45.321,29.42 90.702,58.881 90.702,58.881 0.789,0.512 1.221,1.371 1.221,2.25 0,0.478 -0.128,0.961 -0.395,1.397 -0.759,1.239 -2.366,1.647 -3.625,0.921 0,0 -38.352,-22.142 -75.466,-43.57 28.638,18.401 60.27,38.727 60.27,38.727 0.796,0.511 1.232,1.374 1.232,2.257 0,0.476 -0.127,0.957 -0.392,1.392 -0.758,1.243 -2.368,1.654 -3.628,0.926 0,0 -27.908,-16.113 -51.824,-29.921 19.261,12.461 43.608,28.213 43.608,28.213 0.792,0.513 1.225,1.373 1.225,2.253 0,0.477 -0.128,0.96 -0.394,1.396 -0.759,1.24 -2.367,1.649 -3.626,0.922 0,0 -31.731,-18.32 -63.459,-36.638 24.723,16.763 49.973,33.882 49.973,33.882 0.763,0.517 1.176,1.36 1.176,2.22 0,0.487 -0.132,0.979 -0.409,1.421 -0.766,1.223 -2.361,1.619 -3.61,0.898 0,0 -32.408,-18.71 -63.42,-36.615 22.277,15.977 44.554,31.956 44.554,31.956 0.728,0.521 1.119,1.343 1.119,2.179 0,0.499 -0.139,1.002 -0.428,1.451 -0.775,1.2 -2.355,1.582 -3.592,0.868 0,0 -18.5,-10.681 -36.733,-21.208 10.251,8.176 20.933,16.695 20.933,16.695 0.661,0.527 1.009,1.307 1.009,2.097 0,0.522 -0.151,1.048 -0.465,1.508 -0.79,1.159 -2.34,1.512 -3.555,0.811 l -34.922,-20.163 c -1.282,-0.74 -1.721,-2.378 -0.981,-3.66 0.74,-1.282 2.379,-1.721 3.66,-0.981 0,0 3.166,1.828 3.964,2.288 -10.25,-8.174 -20.931,-16.693 -20.931,-16.693 -0.661,-0.527 -1.009,-1.307 -1.009,-2.097 0,-0.521 0.151,-1.047 0.465,-1.508 0.79,-1.158 2.34,-1.512 3.554,-0.811 0,0 11.896,6.868 20.653,11.924 C 97.906,419.57 75.628,403.592 75.628,403.592 74.9,403.071 74.51,402.249 74.51,401.413 c 0,-0.499 0.138,-1.002 0.428,-1.451 0.774,-1.2 2.354,-1.582 3.591,-0.868 0,0 23.725,13.697 46.22,26.684 -24.726,-16.764 -49.978,-33.885 -49.978,-33.885 -0.762,-0.517 -1.176,-1.36 -1.176,-2.22 0,-0.487 0.133,-0.979 0.409,-1.421 0.766,-1.222 2.362,-1.619 3.611,-0.898 0,0 21.453,12.386 36.081,20.832 -19.274,-12.47 -43.628,-28.226 -43.628,-28.226 -0.791,-0.512 -1.224,-1.372 -1.224,-2.252 0,-0.478 0.128,-0.96 0.394,-1.396 0.759,-1.24 2.367,-1.649 3.626,-0.922 0,0 25.89,14.947 45.791,26.438 -28.613,-18.386 -60.232,-38.703 -60.232,-38.703 -0.796,-0.511 -1.232,-1.374 -1.232,-2.256 0,-0.475 0.127,-0.958 0.392,-1.392 0.757,-1.244 2.368,-1.655 3.628,-0.926 0,0 42.14,24.328 84.219,48.622 -30.805,-19.998 -61.633,-40.011 -78.231,-50.785 h 12.265 c 6.296,3.634 12.745,7.357 17.539,10.125 -4.144,-2.575 -10.359,-6.434 -16.302,-10.125 h 12.005 c 12.682,7.322 28.317,16.348 43.059,24.86 -13.431,-8.491 -27.132,-17.152 -39.325,-24.86 h 14.606 c 13.877,8.011 29.29,16.91 44.694,25.803 -13.645,-8.834 -27.302,-17.675 -39.857,-25.803 h 42.879 c 5.078,2.931 10.203,5.889 15.326,8.847 -4.584,-2.958 -9.168,-5.916 -13.712,-8.847 h 29.568 c 47.757,30.275 92.901,58.895 92.901,58.895"
           style="fill:#e43451;fill-opacity:1;fill-rule:nonzero;stroke:none"
           id="path6790"
           inkscape:connector-curvature="0" /><path
           d="m 308.693,385.153 c 0.81,0.509 1.255,1.38 1.255,2.272 0,0.471 -0.124,0.948 -0.385,1.381 -0.753,1.25 -2.37,1.667 -3.635,0.937 0,0 -27.97,-16.148 -57.773,-33.355 h 14.769 c 26.322,16.543 45.769,28.765 45.769,28.765"
           style="fill:#e43451;fill-opacity:1;fill-rule:nonzero;stroke:none"
           id="path6792"
           inkscape:connector-curvature="0" /><path
           d="m 131.394,223.283 c -0.825,-0.505 -1.281,-1.385 -1.281,-2.288 0,-0.465 0.121,-0.937 0.376,-1.367 0.75,-1.261 2.374,-1.685 3.644,-0.951 0,0 12.181,7.033 32.238,18.613 h -12.088 c -14.363,-8.789 -22.889,-14.007 -22.889,-14.007"
           style="fill:#e43451;fill-opacity:1;fill-rule:nonzero;stroke:none"
           id="path6794"
           inkscape:connector-curvature="0" /><path
           d="m 138.167,214.307 c -0.825,-0.505 -1.28,-1.385 -1.28,-2.287 0,-0.467 0.121,-0.939 0.376,-1.368 0.75,-1.26 2.373,-1.685 3.643,-0.952 0,0 24.82,14.33 47.786,27.59 h -12.985 c -23.167,-14.184 -37.54,-22.983 -37.54,-22.983"
           style="fill:#e43451;fill-opacity:1;fill-rule:nonzero;stroke:none"
           id="path6796"
           inkscape:connector-curvature="0" /><path
           d="m 296.099,387.164 c 0.815,0.507 1.263,1.381 1.263,2.277 0,0.469 -0.123,0.944 -0.382,1.375 -0.751,1.255 -2.371,1.674 -3.638,0.943 0,0 -27.54,-15.901 -61.266,-35.371 h 14.601 c 25.207,15.696 49.422,30.776 49.422,30.776"
           style="fill:#e43451;fill-opacity:1;fill-rule:nonzero;stroke:none"
           id="path6798"
           inkscape:connector-curvature="0" /><path
           d="m 135.01,204.566 c -0.838,-0.501 -1.302,-1.389 -1.302,-2.3 0,-0.462 0.119,-0.93 0.37,-1.357 0.746,-1.267 2.375,-1.697 3.649,-0.962 0,0 25.966,14.991 64.679,37.343 H 189.625 C 163.731,221.775 135.01,204.566 135.01,204.566"
           style="fill:#e43451;fill-opacity:1;fill-rule:nonzero;stroke:none"
           id="path6800"
           inkscape:connector-curvature="0" /><path
           d="m 285.641,392 c 0.806,0.509 1.251,1.378 1.251,2.268 0,0.472 -0.126,0.95 -0.387,1.383 -0.755,1.249 -2.37,1.665 -3.634,0.935 0,0 -31.152,-17.985 -69.628,-40.198 h 15.975 C 260.153,375.912 285.641,392 285.641,392"
           style="fill:#e43451;fill-opacity:1;fill-rule:nonzero;stroke:none"
           id="path6802"
           inkscape:connector-curvature="0" /><path
           d="m 93.866,236.978 c -0.827,-0.505 -1.285,-1.386 -1.285,-2.29 0,-0.466 0.122,-0.937 0.376,-1.367 0.749,-1.261 2.374,-1.685 3.644,-0.952 0,0 3.05,1.761 8.523,4.921 H 94.378 c -0.335,-0.205 -0.512,-0.312 -0.512,-0.312"
           style="fill:#e43451;fill-opacity:1;fill-rule:nonzero;stroke:none"
           id="path6804"
           inkscape:connector-curvature="0" /><path
           d="m 101.708,230.625 c -0.83,-0.504 -1.289,-1.387 -1.289,-2.292 0,-0.465 0.121,-0.936 0.374,-1.364 0.749,-1.263 2.374,-1.689 3.646,-0.954 0,0 7.16,4.133 19.53,11.275 h -11.292 c -7,-4.253 -10.969,-6.665 -10.969,-6.665"
           style="fill:#e43451;fill-opacity:1;fill-rule:nonzero;stroke:none"
           id="path6806"
           inkscape:connector-curvature="0" /><path
           d="m 454.396,450.593 c 0.829,0.505 1.286,1.386 1.286,2.291 0,0.465 -0.121,0.936 -0.375,1.365 -0.749,1.262 -2.374,1.687 -3.645,0.953 0,0 -44.169,-25.5 -62.63,-36.159 18.559,11.121 62.597,37.508 62.597,37.508 0.838,0.502 1.304,1.39 1.304,2.301 0,0.462 -0.12,0.929 -0.37,1.356 -0.747,1.269 -2.376,1.698 -3.651,0.962 0,0 -89.848,-51.874 -181.489,-104.782 h 32.516 c 78.956,48.155 154.457,94.205 154.457,94.205"
           style="fill:#e43451;fill-opacity:1;fill-rule:nonzero;stroke:none"
           id="path6808"
           inkscape:connector-curvature="0" /><path
           d="m 522.111,379.151 c 0.833,0.504 1.295,1.389 1.295,2.297 0,0.463 -0.12,0.932 -0.373,1.36 -0.748,1.266 -2.374,1.692 -3.647,0.958 0,0 -19.222,-11.098 -47.422,-27.378 h 12.462 c 21.855,13.202 37.685,22.763 37.685,22.763"
           style="fill:#e43451;fill-opacity:1;fill-rule:nonzero;stroke:none"
           id="path6810"
           inkscape:connector-curvature="0" /><path
           d="m 535.68,398.333 c 0.827,0.504 1.285,1.386 1.285,2.29 0,0.465 -0.121,0.936 -0.375,1.365 -0.749,1.262 -2.374,1.687 -3.645,0.953 0,0 -39.57,-22.845 -80.633,-46.553 h 14.541 c 40.086,24.429 68.827,41.945 68.827,41.945"
           style="fill:#e43451;fill-opacity:1;fill-rule:nonzero;stroke:none"
           id="path6812"
           inkscape:connector-curvature="0" /><path
           d="m 523.266,370.692 c 0.822,0.505 1.276,1.384 1.276,2.285 0,0.466 -0.122,0.94 -0.379,1.37 -0.75,1.258 -2.372,1.68 -3.642,0.948 0,0 -13.536,-7.816 -32.749,-18.907 h 12.248 c 14.563,8.961 23.246,14.304 23.246,14.304"
           style="fill:#e43451;fill-opacity:1;fill-rule:nonzero;stroke:none"
           id="path6814"
           inkscape:connector-curvature="0" /><path
           d="m 540.883,364.852 c 0,0 -5.453,-3.149 -14.661,-8.464 h 11.113 c 4.062,2.493 6.289,3.859 6.289,3.859 0.823,0.506 1.279,1.385 1.279,2.286 0,0.467 -0.122,0.94 -0.378,1.369 -0.75,1.259 -2.373,1.683 -3.642,0.95"
           style="fill:#e43451;fill-opacity:1;fill-rule:nonzero;stroke:none"
           id="path6816"
           inkscape:connector-curvature="0" /><path
           d="m 514.535,394.734 c 0.836,0.502 1.299,1.389 1.299,2.298 0,0.463 -0.121,0.931 -0.373,1.359 -0.746,1.266 -2.374,1.694 -3.648,0.959 0,0 -34.662,-20.012 -74.414,-42.962 h 13.463 c 32.265,19.43 63.673,38.346 63.673,38.346"
           style="fill:#e43451;fill-opacity:1;fill-rule:nonzero;stroke:none"
           id="path6818"
           inkscape:connector-curvature="0" /><path
           d="m 464.417,444.728 c 0.829,0.504 1.289,1.387 1.289,2.293 0,0.464 -0.121,0.935 -0.375,1.363 -0.748,1.263 -2.374,1.689 -3.645,0.954 0,0 -78.565,-45.359 -160.997,-92.95 h 18.33 c 72.969,44.335 145.398,88.34 145.398,88.34"
           style="fill:#e43451;fill-opacity:1;fill-rule:nonzero;stroke:none"
           id="path6820"
           inkscape:connector-curvature="0" /><path
           d="m 525.877,359.602 c 0.83,0.503 1.29,1.386 1.29,2.293 0,0.464 -0.121,0.934 -0.374,1.363 -0.748,1.263 -2.374,1.689 -3.647,0.955 0,0 -4.92,-2.841 -13.553,-7.825 h 10.987 c 3.402,2.064 5.297,3.214 5.297,3.214"
           style="fill:#e43451;fill-opacity:1;fill-rule:nonzero;stroke:none"
           id="path6822"
           inkscape:connector-curvature="0" /><path
           d="m 485.348,433.602 c 0.825,0.505 1.281,1.386 1.281,2.288 0,0.466 -0.121,0.938 -0.377,1.367 -0.749,1.261 -2.373,1.685 -3.643,0.951 0,0 -66.143,-38.187 -141.718,-81.82 h 18.278 c 68.294,41.792 126.179,77.214 126.179,77.214"
           style="fill:#e43451;fill-opacity:1;fill-rule:nonzero;stroke:none"
           id="path6824"
           inkscape:connector-curvature="0" /><path
           d="m 483.746,445.008 c 0.826,0.505 1.283,1.386 1.283,2.289 0,0.466 -0.121,0.937 -0.377,1.367 -0.749,1.26 -2.373,1.685 -3.642,0.951 0,0 -79.793,-46.068 -161.477,-93.227 h 19.231 c 77.044,47.092 144.982,88.62 144.982,88.62"
           style="fill:#e43451;fill-opacity:1;fill-rule:nonzero;stroke:none"
           id="path6826"
           inkscape:connector-curvature="0" /><path
           d="m 521.694,408.569 c 0.833,0.503 1.294,1.388 1.294,2.296 0,0.463 -0.12,0.933 -0.372,1.361 -0.748,1.265 -2.375,1.692 -3.647,0.957 0,0 -42.02,-24.259 -98.374,-56.795 h 14.733 c 45.914,27.74 86.366,52.181 86.366,52.181"
           style="fill:#e43451;fill-opacity:1;fill-rule:nonzero;stroke:none"
           id="path6828"
           inkscape:connector-curvature="0" /><path
           d="m 518.643,419.872 c 0.825,0.505 1.281,1.385 1.281,2.287 0,0.466 -0.122,0.939 -0.378,1.368 -0.749,1.26 -2.372,1.684 -3.643,0.951 0,0 -59.165,-34.16 -94.299,-54.445 27.059,16.213 79.277,47.5 79.277,47.5 0.839,0.502 1.304,1.39 1.304,2.301 0,0.462 -0.121,0.93 -0.371,1.356 -0.746,1.269 -2.376,1.698 -3.65,0.962 0,0 -50.635,-29.234 -113.908,-65.764 h 30.772 c 58.943,36.113 103.615,63.484 103.615,63.484"
           style="fill:#e43451;fill-opacity:1;fill-rule:nonzero;stroke:none"
           id="path6830"
           inkscape:connector-curvature="0" /><path
           d="m 510.421,435.93 c 0.824,0.505 1.281,1.385 1.281,2.288 0,0.466 -0.122,0.938 -0.377,1.367 -0.75,1.26 -2.373,1.684 -3.643,0.951 0,0 -67.252,-38.828 -145.749,-84.148 h 18.566 c 71.319,43.664 129.922,79.542 129.922,79.542"
           style="fill:#e43451;fill-opacity:1;fill-rule:nonzero;stroke:none"
           id="path6832"
           inkscape:connector-curvature="0" /><path
           d="m 280.431,401.924 c 0.796,0.512 1.233,1.375 1.233,2.258 0,0.475 -0.127,0.957 -0.392,1.392 -0.757,1.242 -2.368,1.654 -3.628,0.926 0,0 -42.137,-24.326 -86.8,-50.112 h 18.64 c 38.92,24.98 70.947,45.536 70.947,45.536"
           style="fill:#e43451;fill-opacity:1;fill-rule:nonzero;stroke:none"
           id="path6834"
           inkscape:connector-curvature="0" /><path
           d="m 215.641,165.247 c -0.823,-0.505 -1.279,-1.385 -1.279,-2.286 0,-0.466 0.122,-0.939 0.378,-1.368 0.75,-1.26 2.373,-1.683 3.643,-0.95 0,0 48.79,28.17 77.533,44.763 -27.671,-16.703 -75.315,-45.464 -75.315,-45.464 -0.833,-0.503 -1.295,-1.387 -1.295,-2.296 0,-0.463 0.12,-0.933 0.372,-1.36 0.747,-1.265 2.375,-1.693 3.648,-0.959 0,0 70.567,40.743 141.961,81.963 H 333.029 C 269.99,198.603 215.641,165.247 215.641,165.247"
           style="fill:#e43451;fill-opacity:1;fill-rule:nonzero;stroke:none"
           id="path6836"
           inkscape:connector-curvature="0" /><path
           d="m 179.235,187.38 c -0.827,-0.504 -1.285,-1.386 -1.285,-2.29 0,-0.466 0.121,-0.937 0.375,-1.365 0.749,-1.263 2.374,-1.687 3.645,-0.954 0,0 51.013,29.453 94.429,54.519 h -15.268 c -46.758,-28.496 -81.896,-49.91 -81.896,-49.91"
           style="fill:#e43451;fill-opacity:1;fill-rule:nonzero;stroke:none"
           id="path6838"
           inkscape:connector-curvature="0" /><path
           d="m 177.718,177.379 c -0.833,-0.503 -1.294,-1.388 -1.294,-2.296 0,-0.463 0.12,-0.933 0.372,-1.36 0.748,-1.265 2.375,-1.693 3.648,-0.958 0,0 49.672,28.677 111.763,64.525 h -15.309 c -45.997,-27.785 -99.18,-59.911 -99.18,-59.911"
           style="fill:#e43451;fill-opacity:1;fill-rule:nonzero;stroke:none"
           id="path6840"
           inkscape:connector-curvature="0" /><path
           d="m 189.029,171.31 c -0.821,-0.505 -1.275,-1.384 -1.275,-2.285 0,-0.466 0.122,-0.94 0.378,-1.37 0.75,-1.258 2.373,-1.68 3.641,-0.948 0,0 65.183,37.633 121.262,70.01 -53.13,-32.239 -115.926,-70.345 -115.926,-70.345 -0.83,-0.503 -1.29,-1.387 -1.29,-2.293 0,-0.464 0.121,-0.933 0.374,-1.362 0.748,-1.264 2.374,-1.69 3.646,-0.956 0,0 60.639,35.01 130.819,75.529 H 296.252 C 236.737,200.667 189.029,171.31 189.029,171.31"
           style="fill:#e43451;fill-opacity:1;fill-rule:nonzero;stroke:none"
           id="path6842"
           inkscape:connector-curvature="0" /><path
           d="m 146.316,198.032 c -0.824,-0.505 -1.28,-1.386 -1.28,-2.287 0,-0.467 0.122,-0.938 0.378,-1.368 0.749,-1.26 2.373,-1.684 3.642,-0.95 0,0 33.865,19.552 75.974,43.863 h -14.64 c -38.265,-23.445 -64.074,-39.258 -64.074,-39.258"
           style="fill:#e43451;fill-opacity:1;fill-rule:nonzero;stroke:none"
           id="path6844"
           inkscape:connector-curvature="0" /><path
           d="m 165.846,190.996 c -0.834,-0.503 -1.297,-1.389 -1.297,-2.298 0,-0.463 0.119,-0.931 0.371,-1.359 0.747,-1.267 2.375,-1.694 3.648,-0.959 0,0 37.824,21.837 88.18,50.91 h -14.031 c -36.303,-21.862 -76.871,-46.294 -76.871,-46.294"
           style="fill:#e43451;fill-opacity:1;fill-rule:nonzero;stroke:none"
           id="path6846"
           inkscape:connector-curvature="0" /><path
           d="m 222.482,149.362 c -0.823,-0.506 -1.278,-1.384 -1.278,-2.285 0,-0.467 0.122,-0.94 0.378,-1.369 0.751,-1.26 2.373,-1.683 3.642,-0.95 0,0 48.966,28.271 79.051,45.641 -28.596,-17.289 -76.11,-46.013 -76.11,-46.013 -0.832,-0.503 -1.294,-1.388 -1.294,-2.296 0,-0.463 0.121,-0.933 0.374,-1.361 0.747,-1.265 2.374,-1.692 3.646,-0.958 0,0 58.785,33.941 107.075,61.82 -41.747,-25.381 -95.69,-58.178 -95.69,-58.178 -0.829,-0.504 -1.288,-1.387 -1.288,-2.292 0,-0.465 0.121,-0.935 0.375,-1.364 0.748,-1.263 2.374,-1.689 3.645,-0.954 0,0 50.535,29.176 87.186,50.337 -34.941,-21.253 -83.941,-51.058 -83.941,-51.058 -0.829,-0.504 -1.288,-1.387 -1.288,-2.292 0,-0.464 0.121,-0.936 0.375,-1.363 0.749,-1.263 2.374,-1.689 3.645,-0.955 0,0 69.025,39.851 138.038,79.696 -59.725,-37.164 -120.02,-74.684 -120.02,-74.684 -0.815,-0.506 -1.264,-1.38 -1.264,-2.277 0,-0.469 0.123,-0.944 0.382,-1.375 0.752,-1.255 2.371,-1.674 3.638,-0.943 0,0 47.001,27.135 85.048,49.101 -37.084,-22.808 -83.081,-51.099 -83.081,-51.099 -0.822,-0.505 -1.276,-1.384 -1.276,-2.285 0,-0.467 0.122,-0.94 0.378,-1.37 0.751,-1.258 2.373,-1.681 3.642,-0.949 0,0 64.36,37.159 128.501,74.191 -56.102,-35.396 -112.228,-70.805 -112.228,-70.805 -0.806,-0.509 -1.25,-1.378 -1.25,-2.269 0,-0.471 0.125,-0.949 0.386,-1.383 0.755,-1.249 2.371,-1.665 3.635,-0.935 0,0 53.763,31.041 107.5,62.066 -40.063,-25.421 -81.715,-51.849 -81.715,-51.849 -0.804,-0.511 -1.245,-1.378 -1.245,-2.266 0,-0.474 0.126,-0.952 0.387,-1.386 0.756,-1.247 2.37,-1.661 3.633,-0.932 0,0 51.628,29.808 100.601,58.084 -26.722,-17.801 -54.279,-36.157 -54.279,-36.157 -0.773,-0.515 -1.195,-1.365 -1.195,-2.232 0,-0.483 0.131,-0.972 0.404,-1.411 0.763,-1.23 2.364,-1.631 3.617,-0.907 l 102.493,59.173 c 1.282,0.74 1.721,2.378 0.981,3.661 -0.74,1.281 -2.379,1.72 -3.661,0.98 0,0 -17.589,-10.155 -30.032,-17.339 26.733,17.808 54.299,36.169 54.299,36.169 0.772,0.516 1.194,1.365 1.194,2.233 0,0.483 -0.131,0.971 -0.403,1.411 -0.764,1.229 -2.364,1.631 -3.617,0.907 0,0 -33.52,-19.353 -62.08,-35.842 20.993,13.32 42.419,26.915 58.062,36.841 h -13.054 c -18.515,-10.689 -42.465,-24.517 -66.26,-38.255 21.223,13.39 42.448,26.779 60.636,38.255 h -15.498 c -5.337,-3.081 -10.634,-6.14 -15.722,-9.078 4.809,2.959 9.769,6.01 14.758,9.078 h -15.179 c -9.987,-5.766 -20.297,-11.719 -30.557,-17.642 9.519,5.923 19.05,11.855 28.352,17.642 H 365.575 C 293.564,193.04 222.482,149.362 222.482,149.362"
           style="fill:#e43451;fill-opacity:1;fill-rule:nonzero;stroke:none"
           id="path6848"
           inkscape:connector-curvature="0" /><path
           d="m 157.576,194.831 c -0.833,-0.503 -1.294,-1.388 -1.294,-2.296 0,-0.463 0.12,-0.932 0.372,-1.36 0.748,-1.265 2.375,-1.693 3.647,-0.958 0,0 42.728,24.669 81.533,47.073 h -13.985 c -38.871,-23.485 -70.273,-42.459 -70.273,-42.459"
           style="fill:#e43451;fill-opacity:1;fill-rule:nonzero;stroke:none"
           id="path6850"
           inkscape:connector-curvature="0" /><path
           d="m 514.096,252.289 c 0.803,0.509 1.245,1.377 1.245,2.265 0,0.472 -0.126,0.952 -0.389,1.385 -0.755,1.248 -2.369,1.663 -3.632,0.933 0,0 -13.726,-7.925 -33.916,-19.582 h 13.054 c 14.203,9.012 23.638,14.999 23.638,14.999"
           style="fill:#ffffff;fill-opacity:1;fill-rule:nonzero;stroke:none"
           id="path6852"
           inkscape:connector-curvature="0" /><path
           d="m 55.482,330.493 c -0.806,-0.509 -1.248,-1.378 -1.248,-2.267 0,-0.473 0.124,-0.951 0.387,-1.384 0.754,-1.249 2.369,-1.664 3.632,-0.935 0,0 22.808,13.168 52.793,30.481 H 96.44 C 73.227,341.712 55.482,330.493 55.482,330.493"
           style="fill:#ffffff;fill-opacity:1;fill-rule:nonzero;stroke:none"
           id="path6854"
           inkscape:connector-curvature="0" /><path
           d="m 409.982,289.276 c 43.893,26.634 94.392,57.278 110.598,67.112 h -10.987 c -27.137,-15.667 -91.053,-52.57 -154.974,-89.474 57.267,35.239 114.547,70.487 145.401,89.474 h -12.248 c -21.749,-12.557 -50.771,-29.313 -75.668,-43.688 23.76,14.353 50.928,30.764 72.322,43.688 h -12.462 c -27.096,-15.645 -62.483,-36.075 -97.092,-56.057 32.264,19.663 64.741,39.455 91.981,56.057 h -14.541 c -11.87,-6.853 -23.863,-13.778 -35.062,-20.243 10.377,6.249 22.05,13.279 33.612,20.243 h -13.463 c -15.338,-8.857 -31.435,-18.15 -46.59,-26.9 14.637,8.844 29.856,18.039 44.519,26.9 h -14.733 c -29.544,-17.058 -63.029,-36.39 -96.464,-55.695 31.347,19.207 62.748,38.448 90.897,55.695 h -30.772 c -21.044,-12.151 -43.486,-25.107 -65.928,-38.064 21.049,12.887 42.113,25.783 62.171,38.064 h -18.566 c -15.988,-9.231 -32.44,-18.73 -48.886,-28.226 15.542,9.512 31.083,19.022 46.122,28.226 h -18.278 c -12.608,-7.28 -25.476,-14.709 -38.345,-22.139 12.145,7.425 24.29,14.848 36.218,22.139 h -19.231 c -3.447,-1.991 -6.896,-3.983 -10.344,-5.973 3.274,1.989 6.552,3.981 9.83,5.973 h -18.33 c -4.671,-2.698 -9.355,-5.402 -14.037,-8.105 4.432,2.703 8.865,5.406 13.287,8.105 h -32.516 c -18.608,-10.744 -37.289,-21.531 -55.308,-31.933 17.613,11.069 35.389,22.241 50.809,31.933 h -14.769 c -6.763,-3.905 -13.619,-7.864 -20.265,-11.7 6.081,3.786 12.465,7.762 18.787,11.7 h -14.601 c -10.772,-6.22 -22.173,-12.802 -33.512,-19.349 10.339,6.526 20.773,13.112 30.654,19.349 h -15.975 c -11.996,-6.927 -24.704,-14.263 -37.403,-21.595 11.388,7.309 22.784,14.624 33.644,21.595 h -18.64 c -3.348,-1.934 -6.71,-3.875 -10.071,-5.815 3.061,1.941 6.121,3.881 9.171,5.815 H 160.376 C 117.116,328.471 77.554,302.94 77.554,302.94 c -0.793,-0.511 -1.227,-1.374 -1.227,-2.254 0,-0.477 0.127,-0.958 0.393,-1.394 0.758,-1.241 2.367,-1.651 3.627,-0.924 0,0 45.7,26.385 90.365,52.172 -50.963,-32.309 -102.045,-64.693 -102.045,-64.693 -0.804,-0.509 -1.246,-1.377 -1.246,-2.266 0,-0.473 0.125,-0.951 0.388,-1.385 0.755,-1.248 2.369,-1.662 3.632,-0.932 0,0 55.277,31.913 110.217,63.632 -52.199,-33.504 -104.595,-67.134 -104.595,-67.134 -0.796,-0.512 -1.232,-1.374 -1.232,-2.257 0,-0.476 0.127,-0.957 0.391,-1.393 0.757,-1.242 2.368,-1.653 3.629,-0.925 0,0 44.918,25.932 88.002,50.806 -42.716,-26.961 -87.087,-54.966 -87.087,-54.966 -0.806,-0.508 -1.249,-1.379 -1.249,-2.268 0,-0.473 0.125,-0.95 0.386,-1.383 0.754,-1.25 2.369,-1.665 3.634,-0.936 0,0 40.219,23.221 73.438,42.4 -30.332,-18.89 -68.223,-42.486 -68.223,-42.486 -0.814,-0.506 -1.263,-1.38 -1.263,-2.276 0,-0.47 0.123,-0.944 0.382,-1.376 0.753,-1.255 2.371,-1.674 3.638,-0.942 0,0 47.594,27.478 93.36,53.901 -47.685,-29.97 -96.585,-60.702 -96.585,-60.702 -0.809,-0.509 -1.254,-1.38 -1.254,-2.271 0,-0.472 0.124,-0.949 0.385,-1.381 0.753,-1.251 2.37,-1.668 3.634,-0.938 0,0 50.065,28.904 74.48,43.001 -18.504,-11.088 -62.493,-37.446 -62.493,-37.446 -0.838,-0.502 -1.303,-1.39 -1.303,-2.301 0,-0.462 0.119,-0.93 0.37,-1.356 0.746,-1.268 2.375,-1.698 3.649,-0.962 0,0 78.814,45.503 155.889,90.001 C 181.847,290.639 101.47,241.615 94.378,237.29 h 10.746 c 22.864,13.201 88.187,50.914 151.809,87.647 C 197.826,289.024 136.961,252.045 112.677,237.29 h 11.292 c 33.179,19.156 103.855,59.961 174.478,100.734 C 231.116,296.868 163.796,255.72 133.647,237.29 h 11.681 c 33.618,19.409 95.998,55.425 158.388,91.445 -59.049,-36.134 -118.12,-72.283 -149.433,-91.445 h 12.088 c 36.9,21.305 100.458,58 163.868,94.61 -58.824,-36.014 -117.76,-72.096 -154.532,-94.61 h 12.985 c 9.495,5.481 18.672,10.78 25.648,14.808 -7.003,-4.197 -15.687,-9.4 -24.715,-14.808 h 12.781 c 38.01,21.945 88.308,50.985 138.388,79.898 C 293.711,288.342 246.503,259.417 210.39,237.29 h 14.64 c 20.189,11.656 42.27,24.404 63.427,36.619 -20.088,-12.138 -41.272,-24.936 -60.608,-36.619 h 13.985 c 7.36,4.249 14.578,8.416 21.337,12.318 -6.432,-3.873 -13.362,-8.047 -20.454,-12.318 h 14.031 c 25.622,14.793 54.484,31.457 83.27,48.075 -27.237,-16.598 -54.625,-33.289 -78.887,-48.075 h 15.268 c 3.834,2.213 7.611,4.394 11.286,6.516 -3.53,-2.132 -7.136,-4.311 -10.787,-6.516 h 15.309 c 20.897,12.065 43.199,24.941 65.49,37.811 -20.908,-12.867 -41.818,-25.733 -61.445,-37.811 h 34.406 c 13.113,7.571 26.56,15.334 40.006,23.098 -12.65,-7.765 -25.309,-15.533 -37.635,-23.098 h 32.258 c 1.588,0.916 3.177,1.834 4.765,2.751 -1.492,-0.917 -2.985,-1.835 -4.477,-2.751 h 72.359 c 49.071,30.535 91.69,57.056 91.69,57.056 0.814,0.507 1.265,1.381 1.265,2.277 0,0.469 -0.124,0.944 -0.383,1.375 -0.752,1.255 -2.371,1.675 -3.638,0.943 0,0 -45.705,-26.387 -75.61,-43.653 34.96,21.264 83.969,51.074 83.969,51.074 0.829,0.504 1.288,1.387 1.288,2.292 0,0.465 -0.121,0.935 -0.375,1.364 -0.749,1.262 -2.374,1.688 -3.646,0.954 0,0 -49.95,-28.839 -85.471,-49.347 41.736,25.375 95.673,58.168 95.673,58.168 0.828,0.505 1.288,1.388 1.288,2.292 0,0.465 -0.121,0.936 -0.375,1.364 -0.749,1.263 -2.374,1.689 -3.645,0.954 0,0 -50.064,-28.904 -81.6,-47.111 28.61,17.296 76.131,46.025 76.131,46.025 0.832,0.503 1.294,1.388 1.294,2.296 0,0.464 -0.121,0.933 -0.374,1.361 -0.747,1.265 -2.374,1.692 -3.646,0.958 0,0 -70.546,-40.731 -139.812,-80.721 73.515,45.173 147.573,90.68 147.573,90.68 0.824,0.505 1.278,1.384 1.278,2.286 0,0.467 -0.122,0.939 -0.378,1.369 -0.75,1.259 -2.372,1.682 -3.642,0.949 0,0 -49.05,-28.319 -78.111,-45.098 27.631,16.679 75.249,45.424 75.249,45.424 0.834,0.503 1.296,1.389 1.296,2.297 0,0.463 -0.12,0.933 -0.373,1.361 -0.747,1.264 -2.374,1.692 -3.648,0.958 0,0 -71.966,-41.55 -142.621,-82.343 64.279,39.45 128.783,79.036 148.755,91.294 h -11.113 c -23.591,-13.621 -71.838,-41.477 -116.24,-67.112"
           style="fill:#ffffff;fill-opacity:1;fill-rule:nonzero;stroke:none"
           id="path6856"
           inkscape:connector-curvature="0" /><path
           d="m 59.833,320.099 c -0.79,-0.512 -1.223,-1.372 -1.223,-2.251 0,-0.478 0.127,-0.961 0.394,-1.397 0.759,-1.24 2.367,-1.649 3.626,-0.922 0,0 31.542,18.211 50.044,28.893 -14.649,-9.055 -42.717,-26.405 -42.717,-26.405 -0.819,-0.506 -1.271,-1.383 -1.271,-2.282 0,-0.468 0.123,-0.942 0.38,-1.372 0.751,-1.257 2.372,-1.678 3.64,-0.946 0,0 8.904,5.141 9.864,5.695 -2.209,-1.351 -15.283,-9.35 -15.283,-9.35 -0.825,-0.505 -1.281,-1.386 -1.281,-2.288 0,-0.466 0.121,-0.938 0.376,-1.368 0.75,-1.26 2.374,-1.684 3.644,-0.951 0,0 42.379,24.468 88.736,51.233 H 115.883 C 84.39,335.998 59.833,320.099 59.833,320.099"
           style="fill:#ffffff;fill-opacity:1;fill-rule:nonzero;stroke:none"
           id="path6858"
           inkscape:connector-curvature="0" /><path
           d="m 63.698,345.826 c -0.816,-0.507 -1.266,-1.382 -1.266,-2.278 0,-0.469 0.123,-0.944 0.381,-1.375 0.752,-1.255 2.372,-1.675 3.639,-0.944 0,0 10.987,6.344 26.254,15.159 H 80.701 c -8.8,-5.466 -17.003,-10.562 -17.003,-10.562"
           style="fill:#ffffff;fill-opacity:1;fill-rule:nonzero;stroke:none"
           id="path6860"
           inkscape:connector-curvature="0" /><path
           d="m 523.627,279.305 c 0.822,0.506 1.276,1.384 1.276,2.285 0,0.467 -0.122,0.939 -0.378,1.369 -0.75,1.259 -2.373,1.682 -3.641,0.949 0,0 -37.291,-21.53 -80.745,-46.618 h 15.179 c 33.476,20.59 68.309,42.015 68.309,42.015"
           style="fill:#ffffff;fill-opacity:1;fill-rule:nonzero;stroke:none"
           id="path6862"
           inkscape:connector-curvature="0" /><path
           d="m 54.705,348.276 c -0.789,-0.512 -1.221,-1.371 -1.221,-2.25 0,-0.477 0.127,-0.961 0.395,-1.397 0.759,-1.239 2.367,-1.648 3.625,-0.921 0,0 10.736,6.199 21.96,12.68 H 67.199 c -7.827,-5.082 -12.494,-8.112 -12.494,-8.112"
           style="fill:#ffffff;fill-opacity:1;fill-rule:nonzero;stroke:none"
           id="path6864"
           inkscape:connector-curvature="0" /><path
           d="m 523.348,269.823 c 0.806,0.51 1.25,1.379 1.25,2.269 0,0.472 -0.125,0.95 -0.386,1.384 -0.755,1.249 -2.37,1.665 -3.634,0.934 0,0 -32.853,-18.967 -64.296,-37.12 h 15.498 c 29.882,18.852 51.568,32.533 51.568,32.533"
           style="fill:#ffffff;fill-opacity:1;fill-rule:nonzero;stroke:none"
           id="path6866"
           inkscape:connector-curvature="0" /></g></g></g></svg>